HIERARCHY
ROOT Hips
{
    OFFSET   0.000000   0.000000   0.000000
    CHANNELS 6 Xposition Yposition Zposition Zrotation Xrotation Yrotation
    JOINT Chest
    {
        OFFSET   0.000000   8.007230   0.000000
        CHANNELS 3 Zrotation Xrotation Yrotation
        JOINT Chest2
        {
            OFFSET   0.000000  22.077100   0.000000
            CHANNELS 3 Zrotation Xrotation Yrotation
            JOINT Neck
            {
                OFFSET   0.000000  23.254800   0.000000
                CHANNELS 3 Zrotation Xrotation Yrotation
                JOINT Head
                {
                    OFFSET   0.000010  14.370000   1.956600
                    CHANNELS 3 Zrotation Xrotation Yrotation
                    End Site
                    {
                        OFFSET   0.000000  19.566000   0.000000
                    }
                }
            }
            JOINT LeftCollar
            {
                OFFSET   3.911900  19.017000  -0.467062
                CHANNELS 3 Zrotation Xrotation Yrotation
                JOINT LeftShoulder
                {
                    OFFSET  10.383700   0.000000   0.000000
                    CHANNELS 3 Zrotation Xrotation Yrotation
                    JOINT LeftElbow
                    {
                        OFFSET  26.662100   0.001193   0.000835
                        CHANNELS 3 Zrotation Xrotation Yrotation
                        JOINT LeftWrist
                        {
                            OFFSET  28.869000  -0.000058  -0.000075
                            CHANNELS 3 Zrotation Xrotation Yrotation
                            JOINT LeftFinger0
                            {
                                OFFSET   2.044660  -2.323460   3.252850
                                CHANNELS 3 Zrotation Xrotation Yrotation
                                JOINT LeftFinger01
                                {
                                    OFFSET   3.088130   0.000000   0.000000
                                    CHANNELS 3 Zrotation Xrotation Yrotation
                                    JOINT LeftFinger02
                                    {
                                        OFFSET   2.639450   0.000000   0.000000
                                        CHANNELS 3 Zrotation Xrotation Yrotation
                                        End Site
                                        {
                                            OFFSET   2.582190   0.000000   0.000000
                                        }
                                    }
                                }
                            }
                            JOINT LeftFinger1
                            {
                                OFFSET   8.364480   0.000000   3.252850
                                CHANNELS 3 Zrotation Xrotation Yrotation
                                JOINT LeftFinger11
                                {
                                    OFFSET   4.646920   0.000000   0.000000
                                    CHANNELS 3 Zrotation Xrotation Yrotation
                                    JOINT LeftFinger12
                                    {
                                        OFFSET   2.323460   0.000000   0.000000
                                        CHANNELS 3 Zrotation Xrotation Yrotation
                                        End Site
                                        {
                                            OFFSET   2.273050   0.000000   0.000000
                                        }
                                    }
                                }
                            }
                            JOINT LeftFinger2
                            {
                                OFFSET   8.364490   0.000016   1.078090
                                CHANNELS 3 Zrotation Xrotation Yrotation
                                JOINT LeftFinger21
                                {
                                    OFFSET   5.111620   0.000000   0.000000
                                    CHANNELS 3 Zrotation Xrotation Yrotation
                                    JOINT LeftFinger22
                                    {
                                        OFFSET   2.788150   0.000012   0.000000
                                        CHANNELS 3 Zrotation Xrotation Yrotation
                                        End Site
                                        {
                                            OFFSET   2.727660   0.000000   0.000000
                                        }
                                    }
                                }
                            }
                            JOINT LeftFinger3
                            {
                                OFFSET   7.899780   0.000014  -1.078090
                                CHANNELS 3 Zrotation Xrotation Yrotation
                                JOINT LeftFinger31
                                {
                                    OFFSET   4.646930   0.000000   0.000000
                                    CHANNELS 3 Zrotation Xrotation Yrotation
                                    JOINT LeftFinger32
                                    {
                                        OFFSET   2.323470   0.000000   0.000000
                                        CHANNELS 3 Zrotation Xrotation Yrotation
                                        End Site
                                        {
                                            OFFSET   2.273050   0.000000   0.000000
                                        }
                                    }
                                }
                            }
                            JOINT LeftFinger4
                            {
                                OFFSET   7.435090   0.000000  -3.252850
                                CHANNELS 3 Zrotation Xrotation Yrotation
                                JOINT LeftFinger41
                                {
                                    OFFSET   3.717550   0.000000   0.000000
                                    CHANNELS 3 Zrotation Xrotation Yrotation
                                    JOINT LeftFinger42
                                    {
                                        OFFSET   1.858770   0.000000   0.000000
                                        CHANNELS 3 Zrotation Xrotation Yrotation
                                        End Site
                                        {
                                            OFFSET   1.818440   0.000000   0.000000
                                        }
                                    }
                                }
                            }
                        }
                    }
                }
            }
            JOINT RightCollar
            {
                OFFSET  -3.911900  19.017000  -0.467063
                CHANNELS 3 Zrotation Xrotation Yrotation
                JOINT RightShoulder
                {
                    OFFSET -10.383700   0.000023   0.000000
                    CHANNELS 3 Zrotation Xrotation Yrotation
                    JOINT RightElbow
                    {
                        OFFSET -26.662100   0.001246   0.001011
                        CHANNELS 3 Zrotation Xrotation Yrotation
                        JOINT RightWrist
                        {
                            OFFSET -28.869000  -0.000026  -0.000078
                            CHANNELS 3 Zrotation Xrotation Yrotation
                            JOINT RightFinger0
                            {
                                OFFSET  -2.044660  -2.323490   3.252850
                                CHANNELS 3 Zrotation Xrotation Yrotation
                                JOINT RightFinger01
                                {
                                    OFFSET  -3.088130   0.000000   0.000000
                                    CHANNELS 3 Zrotation Xrotation Yrotation
                                    JOINT RightFinger02
                                    {
                                        OFFSET  -2.639460   0.000000   0.000000
                                        CHANNELS 3 Zrotation Xrotation Yrotation
                                        End Site
                                        {
                                            OFFSET  -2.582190   0.000000   0.000000
                                        }
                                    }
                                }
                            }
                            JOINT RightFinger1
                            {
                                OFFSET  -8.364480   0.000000   3.252850
                                CHANNELS 3 Zrotation Xrotation Yrotation
                                JOINT RightFinger11
                                {
                                    OFFSET  -4.646920   0.000000   0.000000
                                    CHANNELS 3 Zrotation Xrotation Yrotation
                                    JOINT RightFinger12
                                    {
                                        OFFSET  -2.323470   0.000000   0.000000
                                        CHANNELS 3 Zrotation Xrotation Yrotation
                                        End Site
                                        {
                                            OFFSET  -2.273050   0.000000   0.000000
                                        }
                                    }
                                }
                            }
                            JOINT RightFinger2
                            {
                                OFFSET  -8.364480   0.000000   1.078090
                                CHANNELS 3 Zrotation Xrotation Yrotation
                                JOINT RightFinger21
                                {
                                    OFFSET  -5.111620   0.000000   0.000000
                                    CHANNELS 3 Zrotation Xrotation Yrotation
                                    JOINT RightFinger22
                                    {
                                        OFFSET  -2.788160   0.000000   0.000000
                                        CHANNELS 3 Zrotation Xrotation Yrotation
                                        End Site
                                        {
                                            OFFSET  -2.727660   0.000000   0.000000
                                        }
                                    }
                                }
                            }
                            JOINT RightFinger3
                            {
                                OFFSET  -7.899780   0.000000  -1.078090
                                CHANNELS 3 Zrotation Xrotation Yrotation
                                JOINT RightFinger31
                                {
                                    OFFSET  -4.646930   0.000000   0.000000
                                    CHANNELS 3 Zrotation Xrotation Yrotation
                                    JOINT RightFinger32
                                    {
                                        OFFSET  -2.323470   0.000000   0.000000
                                        CHANNELS 3 Zrotation Xrotation Yrotation
                                        End Site
                                        {
                                            OFFSET  -2.273050   0.000000   0.000000
                                        }
                                    }
                                }
                            }
                            JOINT RightFinger4
                            {
                                OFFSET  -7.435090   0.000000  -3.252850
                                CHANNELS 3 Zrotation Xrotation Yrotation
                                JOINT RightFinger41
                                {
                                    OFFSET  -3.717550   0.000000   0.000000
                                    CHANNELS 3 Zrotation Xrotation Yrotation
                                    JOINT RightFinger42
                                    {
                                        OFFSET  -1.858760   0.000000   0.000000
                                        CHANNELS 3 Zrotation Xrotation Yrotation
                                        End Site
                                        {
                                            OFFSET  -1.818440   0.000000   0.000000
                                        }
                                    }
                                }
                            }
                        }
                    }
                }
            }
        }
    }
    JOINT LeftHip
    {
        OFFSET   9.783010   0.000000   0.000000
        CHANNELS 3 Zrotation Xrotation Yrotation
        JOINT LeftKnee
        {
            OFFSET   0.000073 -41.789100   0.001749
            CHANNELS 3 Zrotation Xrotation Yrotation
            JOINT LeftAnkle
            {
                OFFSET   0.000111 -41.133200  -0.000179
                CHANNELS 3 Zrotation Xrotation Yrotation
                JOINT LeftToe
                {
                    OFFSET   0.000000  -6.358960  14.674500
                    CHANNELS 3 Zrotation Xrotation Yrotation
                    End Site
                    {
                        OFFSET   0.000000   0.000000   3.913200
                    }
                }
            }
        }
    }
    JOINT RightHip
    {
        OFFSET  -9.783010   0.000000   0.000000
        CHANNELS 3 Zrotation Xrotation Yrotation
        JOINT RightKnee
        {
            OFFSET   0.000424 -41.789200   0.005205
            CHANNELS 3 Zrotation Xrotation Yrotation
            JOINT RightAnkle
            {
                OFFSET   0.000000 -41.133200  -0.000155
                CHANNELS 3 Zrotation Xrotation Yrotation
                JOINT RightToe
                {
                    OFFSET   0.000000  -6.358960  14.674500
                    CHANNELS 3 Zrotation Xrotation Yrotation
                    End Site
                    {
                        OFFSET   0.000000   0.000000   3.913200
                    }
                }
            }
        }
    }
}
MOTION
Frames: 5
Frame Time:   0.016667
 -1.006060  89.460400   1.526700  -5.454500  -9.377290 -10.975600   2.021970   6.486480  -1.680860   4.274590  12.906000  -3.627710   2.907330   1.271340  -0.064723   4.781920   2.558890  14.157200  -4.451110   0.590076  -1.278240 -70.777000  23.919400  -5.824780  -2.383880  -4.781600 -21.407100  16.951300 -14.754900   7.351740  37.495700  31.643800 -60.709200 -33.718300   0.002468   0.003684 -11.858700  -0.002588  -0.001498 -33.255500   5.749510  -8.685490 -27.566600  -0.003030   0.002938 -19.296600  -0.003542   0.003761 -28.529600  -1.263240   2.321980 -36.842500  -0.005910   0.002677 -24.537100  -0.001618  -0.002334 -28.388200  -1.257610   2.325050 -35.297100  -0.004156   0.001886 -23.507800  -0.002469   0.001656 -31.676300  -1.388660   2.249260 -47.555000  -0.004747   0.003838 -31.671700  -0.004741   0.000966   5.981080  -5.288170   2.844780  32.912000 -20.208200  33.678500 -40.548000 -28.080400  50.878500 -57.632300 -22.111200   7.025050 -40.982500  33.810400  71.425200  26.431700  -0.048491  -0.058569   8.215800  -0.028333  -0.025336  34.953900   3.728590   5.251720  28.740200  -0.005029  -0.016495  20.118200   0.000638  -0.011463  28.729600  -0.981965  -1.723960  42.522500  -0.012486  -0.024858  28.320100   0.002592  -0.014285  28.697800  -1.028920  -1.802880  39.334900   0.000219  -0.030233  26.197100   0.004346  -0.018104  40.846900  -1.379080  -1.560050  61.309500  -0.017441  -0.023719  40.832100  -0.018420   0.003474   3.809720  14.471300   5.399060   1.031440   0.330736  12.122900  -2.472220  -4.893100   4.446940  -0.000000   0.000000   0.000000   2.528870  11.870600  -5.201450   0.386541   1.372970  -8.001490  -0.266508  -3.625790   5.638170   0.000000   0.000000   0.000000
 -1.032280  89.459300   1.521820  -5.496990  -9.433830 -11.048700   2.003550   6.528340  -1.566080   4.228540  12.994700  -3.395780   2.832760   1.149190  -0.056964   4.658190   2.314270  13.900000  -4.528070   0.398191  -1.312250 -70.859000  23.895700  -5.734220  -2.289350  -4.725110 -21.365800  16.976700 -14.762500   7.378840  37.476700  31.620700 -60.690200 -33.729900   0.002458   0.003688 -11.864900  -0.002582  -0.001493 -33.269100   5.735960  -8.661240 -27.576000  -0.003028   0.002935 -19.303200  -0.003543   0.003758 -28.528500  -1.274370   2.342290 -36.864200  -0.005910   0.002675 -24.551500  -0.001618  -0.002330 -28.387400  -1.268720   2.345360 -35.322100  -0.004157   0.001887 -23.524500  -0.002471   0.001654 -31.691500  -1.401500   2.268530 -47.578900  -0.004749   0.003839 -31.687600  -0.004741   0.000955   6.255290  -5.209630   3.105330  32.279000 -18.548900  33.184600 -39.810600 -26.540300  51.348600 -53.846800 -22.178700   7.336340 -40.263900  33.742400  70.972500  27.516600  -0.045530  -0.055908   8.758270  -0.026858  -0.024041  35.837300   3.922730   5.416320  29.476300  -0.005020  -0.012739  20.633500   0.000805  -0.007408  29.045100  -1.322560  -2.300090  43.957500  -0.011887  -0.010881  29.275800   0.002774  -0.006193  28.746200  -1.300100  -2.280760  40.917300   0.000274  -0.015326  27.250900   0.004413  -0.009257  41.773000  -1.777380  -1.937700  62.715800  -0.010144  -0.015514  41.768700  -0.011904   0.002422   3.837740  14.559000   5.398820   1.035040   0.321888  12.155600  -2.476180  -4.893870   4.475790  -0.000000   0.000000  -0.000000   2.568920  11.948500  -5.200070   0.385635   1.335330  -7.996750  -0.284249  -3.596520   5.697250   0.000000   0.000000   0.000000
 -1.065850  89.460400   1.521630  -5.545320  -9.495430 -11.114600   1.975920   6.566990  -1.450060   4.163240  13.077200  -3.160140   2.768370   1.027890  -0.049708   4.551700   2.070550  13.610100  -4.586250   0.232639  -1.350700 -70.930900  23.869100  -5.649040  -2.206160  -4.697440 -21.312000  16.981000 -14.753400   7.392130  37.475500  31.616700 -60.675400 -33.732800   0.002465   0.003696 -11.868400  -0.002584  -0.001498 -33.266100   5.720680  -8.639600 -27.571000  -0.003031   0.002939 -19.299700  -0.003543   0.003761 -28.527500  -1.284570   2.361130 -36.853100  -0.005909   0.002673 -24.544200  -0.001618  -0.002332 -28.386600  -1.278870   2.364220 -35.314400  -0.004160   0.001884 -23.519400  -0.002470   0.001659 -31.686600  -1.412620   2.286820 -47.572400  -0.004747   0.003838 -31.683200  -0.004738   0.000944   6.494150  -5.211280   3.310060  31.899200 -16.648100  32.610000 -39.050100 -24.985000  51.994500 -49.109500 -22.214800   7.618040 -39.872300  33.766600  70.482900  28.302900  -0.033230  -0.034214   9.151440  -0.019685  -0.017255  36.361200   3.917870   5.365860  29.903200  -0.005020  -0.002779  20.932300   0.000925  -0.000793  29.312300  -1.514890  -2.610960  44.302800  -0.011242   0.000705  29.505700   0.002897   0.000158  28.749100  -1.474000  -2.604020  41.425600   0.000221   0.002594  27.589400   0.004455   0.001270  42.201300  -2.036420  -2.193760  63.366200  -0.000880  -0.004064  42.201900  -0.001510   0.001640   3.869970  14.688000   5.403130   1.043250   0.218445  12.187000  -2.469540  -4.851780   4.495830  -0.000000   0.000000  -0.000000   2.619590  12.022900  -5.197900   0.383463   1.304600  -7.992580  -0.307013  -3.563550   5.749400  -0.000000   0.000000   0.000000
 -1.104610  89.463300   1.521600  -5.598030  -9.560580 -11.172400   1.945010   6.603170  -1.335660   4.086480  13.154700  -2.927180   2.700670   0.907165  -0.042776   4.439760   1.827800  13.301000  -4.642130   0.084808  -1.371890 -70.994800  23.850100  -5.575040  -2.122710  -4.677870 -21.239500  16.984300 -14.738500   7.403860  37.474900  31.611900 -60.655300 -33.734100   0.002473   0.003702 -11.870800  -0.002587  -0.001503 -33.257600   5.706030  -8.620590 -27.563000  -0.003033   0.002943 -19.294100  -0.003543   0.003764 -28.526500  -1.293720   2.378130 -36.833700  -0.005908   0.002672 -24.531200  -0.001618  -0.002334 -28.385900  -1.287970   2.381240 -35.299200  -0.004162   0.001882 -23.509300  -0.002469   0.001664 -31.677400  -1.422340   2.303510 -47.559100  -0.004745   0.003837 -31.674300  -0.004735   0.000932   6.704860  -5.229070   3.502340  31.607600 -14.522200  31.965300 -38.322000 -23.474600  52.641800 -43.877000 -22.326400   7.771830 -39.793100  33.821800  69.932600  28.877000  -0.012607  -0.014799   9.438490  -0.007436  -0.006281  36.549800   3.882330   5.249380  30.052100  -0.005021   0.007563  21.036500   0.000980   0.004399  29.448200  -1.711450  -2.945990  44.352100  -0.010566   0.011884  29.538500   0.002950   0.006627  28.735000  -1.670600  -2.971790  41.498200  -0.000153   0.019823  27.637800   0.004471   0.011803  42.286200  -2.321530  -2.494360  63.516200   0.005072   0.007118  42.301800   0.005698   0.001273   3.909150  14.813900   5.407390   1.049930   0.122574  12.219200  -2.463850  -4.809760   4.504970  -0.000000   0.000000   0.000000   2.678620  12.097100  -5.191240   0.379826   1.276220  -7.987990  -0.331085  -3.526540   5.787840  -0.000000   0.000000   0.000000
 -1.146980  89.468200   1.521790  -5.653370  -9.627590 -11.222200   1.916410   6.637120  -1.229360   4.017450  13.227200  -2.710610   2.615900   0.787909  -0.035996   4.299230   1.588580  12.990000  -4.713140  -0.050194  -1.359490 -71.053700  23.845700  -5.513050  -2.025930  -4.633810 -21.142400  16.999400 -14.727400   7.427400  37.464200  31.589200 -60.623100 -33.738300   0.002472   0.003700 -11.873400  -0.002586  -0.001496 -33.248300   5.693140  -8.604180 -27.555500  -0.003029   0.002940 -19.288900  -0.003548   0.003760 -28.525600  -1.302390   2.394260 -36.811000  -0.005906   0.002673 -24.516200  -0.001620  -0.002331 -28.385200  -1.296580   2.397410 -35.277000  -0.004160   0.001888 -23.494500  -0.002469   0.001658 -31.663200  -1.431430   2.319470 -47.538300  -0.004746   0.003838 -31.660400  -0.004736   0.000921   6.879380  -5.308580   3.708750  31.269200 -12.071300  31.227500 -37.724600 -22.111600  53.114200 -38.453800 -22.742600   7.782560 -39.843700  33.954400  69.286700  29.257200   0.014960  -0.017720   9.628620   0.008604   0.006559  36.279300   3.725180   5.079040  29.818400  -0.005019   0.012925  20.872900   0.000980   0.005227  29.206600  -2.004550  -3.499840  44.007000  -0.009873   0.023818  29.308700   0.002950   0.014645  28.711800  -1.975640  -3.519970  40.993500  -0.004813   0.031616  27.301600   0.004455   0.020680  42.152200  -2.743630  -2.958890  63.348200   0.004498   0.013571  42.189900   0.005919   0.001290   3.958520  14.880700   5.404100   1.057050   0.163828  12.257100  -2.466980  -4.838380   4.498960  -0.000000   0.000000   0.000000   2.742410  12.174700  -5.173000   0.373354   1.244900  -7.984760  -0.352708  -3.483980   5.801440   0.000000   0.000000   0.000000
